<svg xmlns="http://www.w3.org/2000/svg" viewBox="0 0 256 256" width="256" height="256"><path fill="black" d="M 146.4896208993974,236.00000000000003 C 128.30170373355796,236.00000000000003 111.93046586651312,224.56653871543486 105.73051965492905,207.5510134226547 L 61.33805981287141,85.58529131317084 C 53.184127146188445,63.16725752426592 64.79186289837054,38.288257010831046 87.20461564280222,30.134324344148084 L 112.60643955908787,20.892496515977626 C 114.22243916789938,20.301019534974714 115.94405966617572,20.00000000000003 117.71849060918447,20.000000000000014 C 124.57328633545032,20.000000000000014 131.17459192700065,24.45192049094156 133.40319269470805,30.5832131243735 L 144.50394817745908,61.075963912862775 C 145.98264062996634,65.13708711278454 145.78196093998324,69.54147820346692 143.9547195522421,73.47585633603092 C 142.11691607555449,77.40495342412167 138.87435476898497,80.38874355150242 134.80795052458996,81.86215495953645 L 109.40612660830428,91.11454487665338 L 138.99053774739625,172.4215055866605 L 164.3923616636819,163.17967775849002 C 166.0083612724934,162.58820077748712 167.72998177076974,162.28718124251242 169.493850624832,162.28718124251242 C 176.35920844004434,162.28718124251242 182.96051403159467,166.73910173345396 185.18911479930205,172.8703943668859 L 196.2898702820531,203.36314515537518 C 197.76856273456036,207.4189873108237 197.56788304457726,211.81809735703283 195.73007956788962,215.75247548959683 C 193.892276091202,219.6974157111073 190.6497147846325,222.67592479401483 186.59387262918398,224.1493362020489 L 161.18148662395183,233.40700716363907 C 156.43910868698208,235.12862766191537 151.49605106002917,236.00000000000003 146.4896208993974,236.00000000000003 Z"/></svg>