<?xml version="1.0" ?>
<svg xmlns="http://www.w3.org/2000/svg" version="1.1" width="256" height="256">
  <defs/>
  <g>
    <path d="M 160.9685821533203 131.67112731933594 C 175.08274841308594 127.58134460449219 171.19305419921875 129.1345977783203 239.35745239257812 134.8935546875 C 228.02713012695312 132.72674560546875 249.0519256591797 203.25001525878906 220.57936096191406 213.15292358398438 C 169.00877380371094 223.068115234375 169.8259735107422 207.02589416503906 157.36715698242188 201.28392028808594 C 116.47079467773438 166.50027465820312 133.0423583984375 155.0342254638672 128.62330627441406 161.90003967285156 C 128.99130249023438 160.73484802246094 125.08293914794922 182.05075073242188 178.57333374023438 216.1807861328125 C 42.329647064208984 212.9327392578125 35.25532531738281 224.0590362548828 22.062593460083008 198.69288635253906 C 27.487329483032227 135.18975830078125 90.67463684082031 136.72531127929688 94.98150634765625 139.5583953857422 C 98.74256134033203 142.72755432128906 95.83848571777344 134.3275604248047 66.52855682373047 141.39451599121094 C 91.8377456665039 139.92294311523438 26.316776275634766 135.1183624267578 21.8596134185791 200.44850158691406 C 18.28895378112793 185.641845703125 20.850526809692383 143.53704833984375 19.82923698425293 61.91318893432617 C 36.722904205322266 31.856130599975586 21.84156608581543 42.55728530883789 199.9376983642578 40.05739212036133 C 123.08538055419922 67.09789276123047 127.84789276123047 85.58427429199219 132.68553161621094 73.368896484375 C 120.53269958496094 82.60332489013672 113.45246124267578 86.42557525634766 151.01388549804688 60.83810806274414 C 177.55340576171875 49.753028869628906 218.01597595214844 20.7032470703125 235.31932067871094 60.42338180541992 C 237.13954162597656 78.18207550048828 234.5434112548828 149.2583465576172 237.16334533691406 134.79310607910156 C 179.046875 129.8826446533203 174.13319396972656 127.25370025634766 160.9685821533203 131.67112731933594" stroke-width="0.0" fill="rgb(1, 1, 1)" opacity="1.0" stroke="rgb(139, 182, 153)" stroke-opacity="0.5448832" stroke-linecap="round" stroke-linejoin="round"/>
  </g>
</svg>
