<svg xmlns="http://www.w3.org/2000/svg" width="256" height="256" viewBox="0 0 256 256"><path fill="black" d="M 170.50000000,203.35000610 C 176.73712158,203.11679077 181.96513367,197.69573975 182.06416321,191.50000000 C 182.33120728,178.59913635 194.44355774,177.48327637 204.50000000,178.15383911 C 221.03260803,176.64805603 218.98960876,152.36932373 202.50000000,153.12500000 C 200.47201538,153.12500000 198.52798462,153.12500000 196.50000000,153.12500000 C 179.02471924,154.58689880 177.05586243,129.05668640 194.50000000,128.01411438 C 204.30168152,127.97625732 213.69819641,128.01965332 223.50000000,127.99203491 C 239.92985535,127.44333649 239.90209961,103.32135773 223.50000000,102.90420532 C 201.53121948,102.81719971 180.46879578,102.93256378 158.50000000,102.84615326 C 142.29244995,101.50352478 143.12234497,77.52361298 159.50000000,77.75000000 C 165.92187500,77.73848724 172.07838440,77.77342224 178.50000000,77.73192596 C 194.98561096,76.90771484 194.93711853,53.15696716 178.50000000,52.50390625 C 144.38619995,52.39057922 111.66957855,52.39833069 77.55555725,52.50000000 C 61.07539749,53.11924744 60.97116852,76.88034821 77.50000000,77.73192596 C 83.92160797,77.77342224 90.07811737,77.73848724 96.50000000,77.75000000 C 113.53057861,77.62492371 113.36856079,102.70433807 96.50000000,102.87500000 C 81.96634674,102.89781189 68.03264618,102.82904816 53.50000000,102.90972137 C 34.47264099,104.47510529 39.09526825,131.23677063 57.50000000,128.00000000 C 75.85525513,124.75192261 80.38831329,151.54168701 61.50000000,153.08219910 C 51.69991684,153.18128967 42.30160522,153.09715271 32.50000000,153.12500000 C 16.07284737,153.77162170 16.06560898,177.77236938 32.50000000,178.23275757 C 45.89732170,180.54018593 72.35955238,170.81901360 73.93080139,191.50000000 C 73.98260498,198.14456177 79.92150116,203.46990967 86.50000000,203.51922607 C 114.88494110,203.47996521 142.13880920,203.81567383 170.50000000,203.35000610 Z"/></svg>